G04 #@! TF.FileFunction,Soldermask,Bot*
%FSLAX46Y46*%
G04 Gerber Fmt 4.6, Leading zero omitted, Abs format (unit mm)*
G04 Created by KiCad (PCBNEW 4.0.7) date 01/18/19 16:59:07*
%MOMM*%
%LPD*%
G01*
G04 APERTURE LIST*
%ADD10C,0.100000*%
%ADD11C,1.924000*%
%ADD12R,1.924000X7.258000*%
%ADD13C,4.845000*%
%ADD14C,4.210000*%
%ADD15C,2.400000*%
%ADD16C,3.956000*%
%ADD17C,3.194000*%
%ADD18C,2.432000*%
%ADD19C,0.254000*%
G04 APERTURE END LIST*
D10*
D11*
X177165000Y-70104000D03*
X179070000Y-70104000D03*
X203200000Y-48260000D03*
X201295000Y-48260000D03*
X189230000Y-53340000D03*
X189230000Y-55245000D03*
X203200000Y-58420000D03*
X203200000Y-60960000D03*
X190754000Y-63500000D03*
X190754000Y-66040000D03*
X198120000Y-63500000D03*
X198120000Y-56515000D03*
X195580000Y-63500000D03*
X195580000Y-56515000D03*
X203200000Y-68580000D03*
X200660000Y-68580000D03*
X209550000Y-70104000D03*
X216535000Y-70104000D03*
X237998000Y-66675000D03*
X237998000Y-73660000D03*
X237998000Y-63500000D03*
X237998000Y-56515000D03*
X232664000Y-63500000D03*
X232664000Y-66040000D03*
X223520000Y-60960000D03*
X223520000Y-63500000D03*
X231140000Y-58420000D03*
X233045000Y-58420000D03*
X236220000Y-54102000D03*
X238125000Y-54102000D03*
X222250000Y-49784000D03*
X224790000Y-49784000D03*
X209550000Y-83058000D03*
X216535000Y-83058000D03*
X223520000Y-80518000D03*
X223520000Y-83058000D03*
X222758000Y-72898000D03*
X222758000Y-70358000D03*
X209550000Y-72898000D03*
X216535000Y-72898000D03*
X243840000Y-88900000D03*
X238760000Y-88900000D03*
X243840000Y-91440000D03*
X238760000Y-91440000D03*
X243840000Y-93980000D03*
X238760000Y-93980000D03*
X243840000Y-96520000D03*
X238760000Y-96520000D03*
X243840000Y-99060000D03*
X238760000Y-99060000D03*
X243840000Y-101600000D03*
X238760000Y-101600000D03*
X243840000Y-104140000D03*
X238760000Y-104140000D03*
X243840000Y-108458000D03*
X238760000Y-108458000D03*
X243840000Y-113538000D03*
X238760000Y-113538000D03*
X243840000Y-116078000D03*
X238760000Y-116078000D03*
X254254000Y-35052000D03*
X252349000Y-35052000D03*
X244602000Y-34798000D03*
X249682000Y-34798000D03*
X237490000Y-24638000D03*
X242570000Y-24638000D03*
X228219000Y-24638000D03*
X235204000Y-24638000D03*
X232410000Y-38100000D03*
X239395000Y-38100000D03*
X229870000Y-38100000D03*
X224790000Y-38100000D03*
X238760000Y-41910000D03*
X238760000Y-46990000D03*
X236220000Y-49530000D03*
X236220000Y-44450000D03*
X211455000Y-25400000D03*
X209550000Y-25400000D03*
X197612000Y-29210000D03*
X197612000Y-31115000D03*
X193548000Y-38100000D03*
X196088000Y-38100000D03*
X180340000Y-25400000D03*
X185420000Y-25400000D03*
X179324000Y-40005000D03*
X181229000Y-40005000D03*
X176530000Y-51562000D03*
X178435000Y-51562000D03*
X180340000Y-55880000D03*
X182245000Y-55880000D03*
X177165000Y-65278000D03*
X179070000Y-65278000D03*
X166370000Y-70358000D03*
X173355000Y-70358000D03*
X166370000Y-67310000D03*
X173355000Y-67310000D03*
X171450000Y-64008000D03*
X166370000Y-64008000D03*
X166370000Y-45085000D03*
X173355000Y-45085000D03*
X170688000Y-30480000D03*
X170688000Y-35560000D03*
X168148000Y-30480000D03*
X168148000Y-35560000D03*
X151638000Y-38100000D03*
X158623000Y-38100000D03*
X163830000Y-40005000D03*
X158750000Y-40005000D03*
X156845000Y-64516000D03*
X158750000Y-64516000D03*
X139700000Y-72390000D03*
X146685000Y-72390000D03*
X146050000Y-54610000D03*
X146050000Y-59690000D03*
X146050000Y-44958000D03*
X146050000Y-50038000D03*
X139700000Y-38100000D03*
X144780000Y-38100000D03*
X135890000Y-44958000D03*
X135890000Y-50038000D03*
X69850000Y-30480000D03*
X69850000Y-35560000D03*
X72390000Y-35560000D03*
X72390000Y-30480000D03*
X127000000Y-59690000D03*
X132080000Y-59690000D03*
X96520000Y-91440000D03*
X101600000Y-91440000D03*
X63500000Y-55880000D03*
X68580000Y-55880000D03*
X60960000Y-55880000D03*
X55880000Y-55880000D03*
X63500000Y-71120000D03*
X68580000Y-71120000D03*
X43180000Y-53340000D03*
X48260000Y-53340000D03*
X29210000Y-26162000D03*
X29210000Y-33147000D03*
X29210000Y-74041000D03*
X29210000Y-81026000D03*
X29210000Y-104648000D03*
X29210000Y-111633000D03*
X52070000Y-104775000D03*
X52070000Y-111760000D03*
X52070000Y-74295000D03*
X52070000Y-81280000D03*
X52070000Y-41275000D03*
X52070000Y-48260000D03*
X76962000Y-58928000D03*
X83947000Y-58928000D03*
X74930000Y-104775000D03*
X74930000Y-111760000D03*
X113030000Y-104775000D03*
X113030000Y-111760000D03*
X107950000Y-88900000D03*
X107950000Y-83820000D03*
X106680000Y-64770000D03*
X106680000Y-69850000D03*
X132080000Y-53340000D03*
X125095000Y-53340000D03*
X111760000Y-59690000D03*
X118745000Y-59690000D03*
X111760000Y-78740000D03*
X118745000Y-78740000D03*
X136906000Y-82423000D03*
X136906000Y-89408000D03*
X140970000Y-99060000D03*
X147955000Y-99060000D03*
X191770000Y-104775000D03*
X191770000Y-111760000D03*
X172974000Y-56642000D03*
X172974000Y-49657000D03*
X231775000Y-116078000D03*
X233680000Y-116078000D03*
X163830000Y-116332000D03*
X161925000Y-116332000D03*
X222504000Y-33528000D03*
X222504000Y-26543000D03*
X207518000Y-27940000D03*
X207518000Y-38100000D03*
X199898000Y-27940000D03*
X199898000Y-38100000D03*
X78740000Y-49530000D03*
X78740000Y-46990000D03*
X173990000Y-96520000D03*
X173990000Y-93980000D03*
X176530000Y-96520000D03*
X176530000Y-93980000D03*
X179070000Y-96520000D03*
X179070000Y-93980000D03*
X181610000Y-96520000D03*
X186690000Y-96520000D03*
X186690000Y-93980000D03*
X181610000Y-93980000D03*
X184150000Y-96520000D03*
X184150000Y-93980000D03*
X104775000Y-111760000D03*
X102235000Y-111760000D03*
X104775000Y-109220000D03*
X102235000Y-109220000D03*
X104775000Y-106680000D03*
X102235000Y-106680000D03*
X104775000Y-104140000D03*
X102235000Y-104140000D03*
D12*
X233680000Y-126111000D03*
X231140000Y-126111000D03*
X228600000Y-126111000D03*
X226060000Y-126111000D03*
X223520000Y-126111000D03*
X220980000Y-126111000D03*
X218440000Y-126111000D03*
X215900000Y-126111000D03*
X213360000Y-126111000D03*
X210820000Y-126111000D03*
X208280000Y-126111000D03*
X205740000Y-126111000D03*
X203200000Y-126111000D03*
X200660000Y-126111000D03*
X198120000Y-126111000D03*
X195580000Y-126111000D03*
X193040000Y-126111000D03*
X190500000Y-126111000D03*
X187960000Y-126111000D03*
X185420000Y-126111000D03*
X182880000Y-126111000D03*
X180340000Y-126111000D03*
X177800000Y-126111000D03*
X175260000Y-126111000D03*
X172720000Y-126111000D03*
X170180000Y-126111000D03*
X167640000Y-126111000D03*
X165100000Y-126111000D03*
X162560000Y-126111000D03*
X160020000Y-126111000D03*
X157480000Y-126111000D03*
D11*
X71120000Y-101600000D03*
X68580000Y-101600000D03*
X232664000Y-76200000D03*
X245364000Y-76200000D03*
X232664000Y-80010000D03*
X245364000Y-80010000D03*
X231140000Y-110998000D03*
X243840000Y-110998000D03*
X209550000Y-80518000D03*
X209550000Y-77978000D03*
X209550000Y-75438000D03*
D13*
X191770000Y-77978000D03*
D11*
X203200000Y-53340000D03*
X193040000Y-53340000D03*
X220980000Y-55118000D03*
X231140000Y-55118000D03*
X230378000Y-44450000D03*
X220218000Y-44450000D03*
X236220000Y-41910000D03*
X226060000Y-41910000D03*
X244602000Y-24638000D03*
X254762000Y-24638000D03*
X254762000Y-27178000D03*
X244602000Y-27178000D03*
X254762000Y-29718000D03*
X244602000Y-29718000D03*
X254762000Y-32258000D03*
X244602000Y-32258000D03*
X215900000Y-24638000D03*
X226060000Y-24638000D03*
X220218000Y-38100000D03*
X220218000Y-27940000D03*
X217678000Y-38100000D03*
X217678000Y-27940000D03*
X215138000Y-38100000D03*
X215138000Y-27940000D03*
X212598000Y-27940000D03*
X212598000Y-38100000D03*
X210058000Y-38100000D03*
X210058000Y-27940000D03*
X204978000Y-27940000D03*
X204978000Y-38100000D03*
X202438000Y-27940000D03*
X202438000Y-38100000D03*
X192278000Y-25400000D03*
X202438000Y-25400000D03*
X189230000Y-27178000D03*
X189230000Y-37338000D03*
X176530000Y-84582000D03*
X186690000Y-84582000D03*
X176530000Y-78740000D03*
X166370000Y-78740000D03*
X176530000Y-72898000D03*
X166370000Y-72898000D03*
X166370000Y-61468000D03*
X176530000Y-61468000D03*
X176530000Y-58928000D03*
X166370000Y-58928000D03*
X176530000Y-42545000D03*
X166370000Y-42545000D03*
X166370000Y-40005000D03*
X176530000Y-40005000D03*
X173228000Y-25400000D03*
X173228000Y-35560000D03*
X157480000Y-25400000D03*
X167640000Y-25400000D03*
X163830000Y-42545000D03*
X153670000Y-42545000D03*
X163830000Y-45085000D03*
X153670000Y-45085000D03*
X163830000Y-58928000D03*
X153670000Y-58928000D03*
X163830000Y-61468000D03*
X153670000Y-61468000D03*
X142240000Y-69850000D03*
X142240000Y-59690000D03*
X139700000Y-69850000D03*
X139700000Y-59690000D03*
X137160000Y-59690000D03*
X137160000Y-69850000D03*
X149860000Y-58420000D03*
X149860000Y-48260000D03*
X142240000Y-44958000D03*
X142240000Y-55118000D03*
X138430000Y-44958000D03*
X138430000Y-55118000D03*
X144780000Y-25400000D03*
X154940000Y-25400000D03*
X137160000Y-72390000D03*
X127000000Y-72390000D03*
X134620000Y-91440000D03*
X124460000Y-91440000D03*
X116840000Y-101600000D03*
X127000000Y-101600000D03*
X96520000Y-100330000D03*
X86360000Y-100330000D03*
X76200000Y-43180000D03*
X76200000Y-53340000D03*
X33020000Y-101600000D03*
X43180000Y-101600000D03*
X236220000Y-106680000D03*
X236220000Y-104140000D03*
X236220000Y-101600000D03*
X236220000Y-99060000D03*
X236220000Y-96520000D03*
X236220000Y-93980000D03*
X236220000Y-91440000D03*
X236220000Y-88900000D03*
X223520000Y-99060000D03*
X223520000Y-96520000D03*
X223520000Y-93980000D03*
X223520000Y-91440000D03*
X223520000Y-88900000D03*
X195580000Y-86360000D03*
X198120000Y-86360000D03*
X200660000Y-86360000D03*
X203200000Y-86360000D03*
X205740000Y-86360000D03*
X79248000Y-33020000D03*
X79248000Y-30480000D03*
X79248000Y-27940000D03*
X163830000Y-34290000D03*
X165100000Y-35560000D03*
X163830000Y-36830000D03*
X193040000Y-31242000D03*
X191770000Y-29972000D03*
X193040000Y-28702000D03*
X76708000Y-33020000D03*
X76708000Y-30480000D03*
X76708000Y-27940000D03*
X233680000Y-106680000D03*
X233680000Y-104140000D03*
X233680000Y-101600000D03*
X233680000Y-99060000D03*
X233680000Y-96520000D03*
X233680000Y-93980000D03*
X233680000Y-91440000D03*
X226060000Y-91440000D03*
X226060000Y-93980000D03*
X226060000Y-96520000D03*
X226060000Y-99060000D03*
X226060000Y-101600000D03*
X226060000Y-104140000D03*
X226060000Y-106680000D03*
X233680000Y-88900000D03*
X226060000Y-88900000D03*
X195580000Y-111760000D03*
X198120000Y-111760000D03*
X200660000Y-111760000D03*
X203200000Y-111760000D03*
X205740000Y-111760000D03*
X208280000Y-111760000D03*
X210820000Y-111760000D03*
X200660000Y-104140000D03*
X218440000Y-104140000D03*
X215900000Y-104140000D03*
X213360000Y-104140000D03*
X210820000Y-104140000D03*
X208280000Y-104140000D03*
X205740000Y-104140000D03*
X213360000Y-111760000D03*
X203200000Y-104140000D03*
X215900000Y-111760000D03*
X218440000Y-111760000D03*
X198120000Y-104140000D03*
X195580000Y-104140000D03*
X195580000Y-96520000D03*
X198120000Y-96520000D03*
X200660000Y-96520000D03*
X203200000Y-96520000D03*
X205740000Y-96520000D03*
X208280000Y-96520000D03*
X210820000Y-96520000D03*
X200660000Y-88900000D03*
X218440000Y-88900000D03*
X215900000Y-88900000D03*
X213360000Y-88900000D03*
X210820000Y-88900000D03*
X208280000Y-88900000D03*
X205740000Y-88900000D03*
X213360000Y-96520000D03*
X203200000Y-88900000D03*
X215900000Y-96520000D03*
X218440000Y-96520000D03*
X198120000Y-88900000D03*
X195580000Y-88900000D03*
X217170000Y-66040000D03*
X217170000Y-63500000D03*
X217170000Y-60960000D03*
X217170000Y-58420000D03*
X217170000Y-55880000D03*
X217170000Y-53340000D03*
X217170000Y-50800000D03*
X209550000Y-50800000D03*
X209550000Y-53340000D03*
X209550000Y-55880000D03*
X209550000Y-58420000D03*
X209550000Y-60960000D03*
X209550000Y-63500000D03*
X209550000Y-66040000D03*
X217170000Y-48260000D03*
X209550000Y-48260000D03*
X226060000Y-35560000D03*
X228600000Y-35560000D03*
X231140000Y-35560000D03*
X233680000Y-35560000D03*
X236220000Y-35560000D03*
X238760000Y-35560000D03*
X241300000Y-35560000D03*
X241300000Y-27940000D03*
X238760000Y-27940000D03*
X236220000Y-27940000D03*
X233680000Y-27940000D03*
X231140000Y-27940000D03*
X228600000Y-27940000D03*
X226060000Y-27940000D03*
X177800000Y-35560000D03*
X180340000Y-35560000D03*
X182880000Y-35560000D03*
X185420000Y-35560000D03*
X185420000Y-27940000D03*
X182880000Y-27940000D03*
X180340000Y-27940000D03*
X177800000Y-27940000D03*
X168910000Y-111760000D03*
X171450000Y-111760000D03*
X173990000Y-111760000D03*
X176530000Y-111760000D03*
X179070000Y-111760000D03*
X181610000Y-111760000D03*
X184150000Y-111760000D03*
X184150000Y-104140000D03*
X181610000Y-104140000D03*
X179070000Y-104140000D03*
X176530000Y-104140000D03*
X173990000Y-104140000D03*
X171450000Y-104140000D03*
X168910000Y-104140000D03*
X186690000Y-111760000D03*
X186690000Y-104140000D03*
X140970000Y-111760000D03*
X143510000Y-111760000D03*
X146050000Y-111760000D03*
X148590000Y-111760000D03*
X151130000Y-111760000D03*
X153670000Y-111760000D03*
X156210000Y-111760000D03*
X156210000Y-104140000D03*
X153670000Y-104140000D03*
X151130000Y-104140000D03*
X148590000Y-104140000D03*
X146050000Y-104140000D03*
X143510000Y-104140000D03*
X140970000Y-104140000D03*
X158750000Y-111760000D03*
X158750000Y-104140000D03*
X153670000Y-75692000D03*
X156210000Y-75692000D03*
X158750000Y-75692000D03*
X161290000Y-75692000D03*
X161290000Y-68072000D03*
X158750000Y-68072000D03*
X156210000Y-68072000D03*
X153670000Y-68072000D03*
X153670000Y-55880000D03*
X156210000Y-55880000D03*
X158750000Y-55880000D03*
X161290000Y-55880000D03*
X163830000Y-55880000D03*
X166370000Y-55880000D03*
X168910000Y-55880000D03*
X168910000Y-48260000D03*
X166370000Y-48260000D03*
X163830000Y-48260000D03*
X161290000Y-48260000D03*
X158750000Y-48260000D03*
X156210000Y-48260000D03*
X153670000Y-48260000D03*
X139700000Y-35560000D03*
X142240000Y-35560000D03*
X144780000Y-35560000D03*
X147320000Y-35560000D03*
X149860000Y-35560000D03*
X152400000Y-35560000D03*
X154940000Y-35560000D03*
X154940000Y-27940000D03*
X152400000Y-27940000D03*
X149860000Y-27940000D03*
X147320000Y-27940000D03*
X144780000Y-27940000D03*
X142240000Y-27940000D03*
X139700000Y-27940000D03*
X157480000Y-35560000D03*
X157480000Y-27940000D03*
X132080000Y-35560000D03*
X129540000Y-35560000D03*
X127000000Y-35560000D03*
X124460000Y-35560000D03*
X121920000Y-35560000D03*
X119380000Y-35560000D03*
X116840000Y-35560000D03*
X88900000Y-35560000D03*
X106680000Y-35560000D03*
X104140000Y-35560000D03*
X101600000Y-35560000D03*
X99060000Y-35560000D03*
X96520000Y-35560000D03*
X93980000Y-35560000D03*
X114300000Y-35560000D03*
X91440000Y-35560000D03*
X111760000Y-35560000D03*
X109220000Y-35560000D03*
X86360000Y-35560000D03*
X83820000Y-35560000D03*
X83820000Y-50800000D03*
X86360000Y-50800000D03*
X88900000Y-50800000D03*
X91440000Y-50800000D03*
X93980000Y-50800000D03*
X96520000Y-50800000D03*
X99060000Y-50800000D03*
X101600000Y-50800000D03*
X104140000Y-50800000D03*
X106680000Y-50800000D03*
X109220000Y-50800000D03*
X111760000Y-50800000D03*
X114300000Y-50800000D03*
X116840000Y-50800000D03*
X119380000Y-50800000D03*
X121920000Y-50800000D03*
X124460000Y-50800000D03*
X127000000Y-50800000D03*
X129540000Y-50800000D03*
X132080000Y-50800000D03*
X111760000Y-69850000D03*
X114300000Y-69850000D03*
X116840000Y-69850000D03*
X119380000Y-69850000D03*
X121920000Y-69850000D03*
X124460000Y-69850000D03*
X127000000Y-69850000D03*
X111760000Y-62230000D03*
X129540000Y-62230000D03*
X127000000Y-62230000D03*
X124460000Y-62230000D03*
X121920000Y-62230000D03*
X119380000Y-62230000D03*
X116840000Y-62230000D03*
X129540000Y-69850000D03*
X114300000Y-62230000D03*
X132080000Y-69850000D03*
X132080000Y-62230000D03*
X111760000Y-88900000D03*
X114300000Y-88900000D03*
X116840000Y-88900000D03*
X119380000Y-88900000D03*
X121920000Y-88900000D03*
X124460000Y-88900000D03*
X127000000Y-88900000D03*
X111760000Y-81280000D03*
X129540000Y-81280000D03*
X127000000Y-81280000D03*
X124460000Y-81280000D03*
X121920000Y-81280000D03*
X119380000Y-81280000D03*
X116840000Y-81280000D03*
X129540000Y-88900000D03*
X114300000Y-81280000D03*
X132080000Y-88900000D03*
X132080000Y-81280000D03*
X116840000Y-111760000D03*
X119380000Y-111760000D03*
X121920000Y-111760000D03*
X124460000Y-111760000D03*
X127000000Y-111760000D03*
X129540000Y-111760000D03*
X132080000Y-111760000D03*
X132080000Y-104140000D03*
X129540000Y-104140000D03*
X127000000Y-104140000D03*
X124460000Y-104140000D03*
X121920000Y-104140000D03*
X119380000Y-104140000D03*
X116840000Y-104140000D03*
X78740000Y-111760000D03*
X81280000Y-111760000D03*
X83820000Y-111760000D03*
X86360000Y-111760000D03*
X88900000Y-111760000D03*
X91440000Y-111760000D03*
X93980000Y-111760000D03*
X93980000Y-104140000D03*
X91440000Y-104140000D03*
X88900000Y-104140000D03*
X86360000Y-104140000D03*
X83820000Y-104140000D03*
X81280000Y-104140000D03*
X78740000Y-104140000D03*
X96520000Y-111760000D03*
X96520000Y-104140000D03*
X78740000Y-88900000D03*
X81280000Y-88900000D03*
X83820000Y-88900000D03*
X86360000Y-88900000D03*
X88900000Y-88900000D03*
X91440000Y-88900000D03*
X93980000Y-88900000D03*
X83820000Y-81280000D03*
X101600000Y-81280000D03*
X99060000Y-81280000D03*
X96520000Y-81280000D03*
X93980000Y-81280000D03*
X91440000Y-81280000D03*
X88900000Y-81280000D03*
X96520000Y-88900000D03*
X86360000Y-81280000D03*
X99060000Y-88900000D03*
X101600000Y-88900000D03*
X81280000Y-81280000D03*
X78740000Y-81280000D03*
X78740000Y-69850000D03*
X81280000Y-69850000D03*
X83820000Y-69850000D03*
X86360000Y-69850000D03*
X88900000Y-69850000D03*
X91440000Y-69850000D03*
X93980000Y-69850000D03*
X83820000Y-62230000D03*
X101600000Y-62230000D03*
X99060000Y-62230000D03*
X96520000Y-62230000D03*
X93980000Y-62230000D03*
X91440000Y-62230000D03*
X88900000Y-62230000D03*
X96520000Y-69850000D03*
X86360000Y-62230000D03*
X99060000Y-69850000D03*
X101600000Y-69850000D03*
X81280000Y-62230000D03*
X78740000Y-62230000D03*
X55880000Y-50800000D03*
X58420000Y-50800000D03*
X60960000Y-50800000D03*
X63500000Y-50800000D03*
X66040000Y-50800000D03*
X68580000Y-50800000D03*
X71120000Y-50800000D03*
X71120000Y-43180000D03*
X68580000Y-43180000D03*
X66040000Y-43180000D03*
X63500000Y-43180000D03*
X60960000Y-43180000D03*
X58420000Y-43180000D03*
X55880000Y-43180000D03*
X55880000Y-66040000D03*
X58420000Y-66040000D03*
X60960000Y-66040000D03*
X63500000Y-66040000D03*
X66040000Y-66040000D03*
X68580000Y-66040000D03*
X71120000Y-66040000D03*
X71120000Y-58420000D03*
X68580000Y-58420000D03*
X66040000Y-58420000D03*
X63500000Y-58420000D03*
X60960000Y-58420000D03*
X58420000Y-58420000D03*
X55880000Y-58420000D03*
X55880000Y-81280000D03*
X58420000Y-81280000D03*
X60960000Y-81280000D03*
X63500000Y-81280000D03*
X66040000Y-81280000D03*
X68580000Y-81280000D03*
X71120000Y-81280000D03*
X71120000Y-73660000D03*
X68580000Y-73660000D03*
X66040000Y-73660000D03*
X63500000Y-73660000D03*
X60960000Y-73660000D03*
X58420000Y-73660000D03*
X55880000Y-73660000D03*
X55880000Y-96520000D03*
X58420000Y-96520000D03*
X60960000Y-96520000D03*
X63500000Y-96520000D03*
X66040000Y-96520000D03*
X68580000Y-96520000D03*
X71120000Y-96520000D03*
X71120000Y-88900000D03*
X68580000Y-88900000D03*
X66040000Y-88900000D03*
X63500000Y-88900000D03*
X60960000Y-88900000D03*
X58420000Y-88900000D03*
X55880000Y-88900000D03*
X55880000Y-111760000D03*
X58420000Y-111760000D03*
X60960000Y-111760000D03*
X63500000Y-111760000D03*
X66040000Y-111760000D03*
X68580000Y-111760000D03*
X71120000Y-111760000D03*
X71120000Y-104140000D03*
X68580000Y-104140000D03*
X66040000Y-104140000D03*
X63500000Y-104140000D03*
X60960000Y-104140000D03*
X58420000Y-104140000D03*
X55880000Y-104140000D03*
X33020000Y-111760000D03*
X35560000Y-111760000D03*
X38100000Y-111760000D03*
X40640000Y-111760000D03*
X43180000Y-111760000D03*
X45720000Y-111760000D03*
X48260000Y-111760000D03*
X48260000Y-104140000D03*
X45720000Y-104140000D03*
X43180000Y-104140000D03*
X40640000Y-104140000D03*
X38100000Y-104140000D03*
X35560000Y-104140000D03*
X33020000Y-104140000D03*
X33020000Y-96520000D03*
X35560000Y-96520000D03*
X38100000Y-96520000D03*
X40640000Y-96520000D03*
X43180000Y-96520000D03*
X45720000Y-96520000D03*
X48260000Y-96520000D03*
X48260000Y-88900000D03*
X45720000Y-88900000D03*
X43180000Y-88900000D03*
X40640000Y-88900000D03*
X38100000Y-88900000D03*
X35560000Y-88900000D03*
X33020000Y-88900000D03*
X33020000Y-81280000D03*
X35560000Y-81280000D03*
X38100000Y-81280000D03*
X40640000Y-81280000D03*
X43180000Y-81280000D03*
X45720000Y-81280000D03*
X48260000Y-81280000D03*
X48260000Y-73660000D03*
X45720000Y-73660000D03*
X43180000Y-73660000D03*
X40640000Y-73660000D03*
X38100000Y-73660000D03*
X35560000Y-73660000D03*
X33020000Y-73660000D03*
X33020000Y-66040000D03*
X35560000Y-66040000D03*
X38100000Y-66040000D03*
X40640000Y-66040000D03*
X43180000Y-66040000D03*
X45720000Y-66040000D03*
X48260000Y-66040000D03*
X48260000Y-58420000D03*
X45720000Y-58420000D03*
X43180000Y-58420000D03*
X40640000Y-58420000D03*
X38100000Y-58420000D03*
X35560000Y-58420000D03*
X33020000Y-58420000D03*
X33020000Y-50800000D03*
X35560000Y-50800000D03*
X38100000Y-50800000D03*
X40640000Y-50800000D03*
X43180000Y-50800000D03*
X45720000Y-50800000D03*
X48260000Y-50800000D03*
X48260000Y-43180000D03*
X45720000Y-43180000D03*
X43180000Y-43180000D03*
X40640000Y-43180000D03*
X38100000Y-43180000D03*
X35560000Y-43180000D03*
X33020000Y-43180000D03*
X33020000Y-35560000D03*
X35560000Y-35560000D03*
X38100000Y-35560000D03*
X40640000Y-35560000D03*
X43180000Y-35560000D03*
X45720000Y-35560000D03*
X48260000Y-35560000D03*
X48260000Y-27940000D03*
X45720000Y-27940000D03*
X43180000Y-27940000D03*
X40640000Y-27940000D03*
X38100000Y-27940000D03*
X35560000Y-27940000D03*
X33020000Y-27940000D03*
X57658000Y-38862000D03*
X67310000Y-35560000D03*
X67310000Y-30480000D03*
X57658000Y-27178000D03*
X166370000Y-75438000D03*
X176530000Y-75438000D03*
X186690000Y-81280000D03*
X176530000Y-81280000D03*
X154940000Y-78740000D03*
X144780000Y-78740000D03*
X140970000Y-96520000D03*
X143510000Y-96520000D03*
X146050000Y-96520000D03*
X148590000Y-96520000D03*
X151130000Y-96520000D03*
X153670000Y-96520000D03*
X156210000Y-96520000D03*
X156210000Y-81280000D03*
X166370000Y-96520000D03*
X168910000Y-96520000D03*
X168910000Y-81280000D03*
X166370000Y-81280000D03*
X163830000Y-81280000D03*
X161290000Y-81280000D03*
X158750000Y-96520000D03*
X158750000Y-81280000D03*
X161290000Y-96520000D03*
X163830000Y-96520000D03*
X153670000Y-81280000D03*
X151130000Y-81280000D03*
X148590000Y-81280000D03*
X146050000Y-81280000D03*
X143510000Y-81280000D03*
X140970000Y-81280000D03*
D14*
X254000000Y-55372000D03*
D15*
X256286000Y-83486000D03*
X251286000Y-78486000D03*
X251286000Y-88486000D03*
X256286000Y-88486000D03*
X256286000Y-78486000D03*
X251286000Y-83486000D03*
D16*
X257048000Y-45212000D03*
X245846600Y-40005000D03*
X243357400Y-45212000D03*
D17*
X256540000Y-119380000D03*
X30480000Y-119380000D03*
D11*
X248920000Y-116586000D03*
X248920000Y-119380000D03*
X248920000Y-113792000D03*
X248920000Y-110998000D03*
X248920000Y-108204000D03*
X248920000Y-105410000D03*
X248920000Y-102616000D03*
X248920000Y-99822000D03*
X251790200Y-117983000D03*
X251790200Y-115189000D03*
X251790200Y-112395000D03*
X251790200Y-109601000D03*
X251790200Y-106807000D03*
X251790200Y-104013000D03*
X251790200Y-101219000D03*
D16*
X250355100Y-126441200D03*
X250355100Y-93167200D03*
D11*
X249174000Y-67310000D03*
X255778000Y-67310000D03*
X252476000Y-68707000D03*
D18*
X248539000Y-62484000D03*
X256413000Y-62484000D03*
D19*
G36*
X236093000Y-128217394D02*
X234897394Y-129413000D01*
X156262606Y-129413000D01*
X155067000Y-128217394D01*
X155067000Y-122047000D01*
X236093000Y-122047000D01*
X236093000Y-128217394D01*
X236093000Y-128217394D01*
G37*
X236093000Y-128217394D02*
X234897394Y-129413000D01*
X156262606Y-129413000D01*
X155067000Y-128217394D01*
X155067000Y-122047000D01*
X236093000Y-122047000D01*
X236093000Y-128217394D01*
M02*
