M48
;DRILL file {KiCad 4.0.7} date 01/18/19 16:59:13
;FORMAT={-:-/ absolute / metric / decimal}
FMAT,2
METRIC,TZ
T1C0.584
T2C0.889
T3C1.016
T4C1.092
T5C1.500
T6C1.524
T7C1.600
T8C2.870
T9C3.048
T10C3.175
T11C3.810
%
G90
G05
M71
T1
X34.29Y-61.468
X36.83Y-107.95
X39.37Y-69.85
X40.64Y-93.472
X44.45Y-47.752
X44.45Y-69.85
X44.45Y-91.44
X44.45Y-108.712
X44.45Y-115.57
X46.99Y-55.88
X46.99Y-64.008
X47.752Y-85.09
X52.07Y-44.958
X52.07Y-69.85
X52.07Y-90.17
X52.832Y-100.838
X55.88Y-46.228
X55.88Y-68.58
X57.15Y-76.2
X57.15Y-102.87
X58.42Y-78.74
X58.674Y-68.58
X59.69Y-120.65
X61.468Y-71.12
X62.23Y-64.77
X64.262Y-92.964
X64.77Y-44.958
X64.77Y-54.102
X65.786Y-93.98
X66.548Y-85.09
X67.31Y-53.34
X68.58Y-38.1
X68.834Y-91.44
X72.898Y-82.55
X74.168Y-39.37
X74.93Y-102.87
X75.438Y-40.64
X75.692Y-73.66
X76.2Y-55.88
X76.962Y-81.28
X76.962Y-83.82
X76.962Y-86.614
X78.486Y-57.15
X80.01Y-74.93
X80.01Y-95.25
X80.772Y-57.15
X80.772Y-58.928
X81.788Y-53.34
X82.042Y-45.72
X82.55Y-66.548
X82.55Y-98.552
X85.09Y-49.53
X87.63Y-27.178
X87.63Y-45.72
X88.9Y-92.456
X90.17Y-48.26
X90.17Y-85.852
X92.71Y-46.99
X95.25Y-77.47
X95.25Y-84.328
X97.79Y-27.432
X100.076Y-110.236
X101.6Y-76.2
X103.505Y-117.602
X103.632Y-71.12
X103.632Y-88.9
X104.902Y-90.932
X105.918Y-88.9
X107.442Y-58.42
X109.982Y-85.09
X112.522Y-96.52
X113.538Y-99.06
X114.3Y-76.2
X115.824Y-106.68
X117.094Y-93.98
X118.618Y-74.93
X120.65Y-101.6
X121.92Y-41.148
X123.19Y-74.93
X125.73Y-68.072
X127.Y-26.67
X128.27Y-66.548
X130.81Y-66.548
X130.81Y-73.152
X130.81Y-91.44
X130.81Y-96.52
X132.08Y-74.676
X132.08Y-83.82
X132.08Y-100.33
X134.112Y-78.74
X135.382Y-114.3
X137.922Y-29.718
X139.192Y-89.408
X140.462Y-54.102
X140.97Y-62.23
X140.97Y-74.93
X140.97Y-119.38
X142.24Y-32.766
X142.24Y-97.79
X143.51Y-68.072
X143.51Y-99.822
X143.51Y-118.618
X145.542Y-68.072
X146.05Y-57.15
X146.05Y-75.184
X147.32Y-85.09
X148.59Y-74.422
X148.59Y-109.728
X149.098Y-55.118
X149.352Y-88.138
X149.86Y-66.04
X149.86Y-102.87
X150.622Y-75.184
X151.13Y-29.21
X151.638Y-52.578
X152.654Y-89.662
X153.67Y-34.29
X156.21Y-45.212
X156.972Y-91.948
X158.242Y-119.38
X158.75Y-91.948
X159.512Y-62.992
X160.02Y-95.25
X160.528Y-57.658
X161.29Y-119.38
X162.052Y-60.198
X162.052Y-100.33
X162.56Y-105.664
X163.068Y-108.966
X163.068Y-118.11
X163.83Y-63.5
X163.83Y-101.092
X165.1Y-85.09
X165.608Y-101.6
X166.624Y-104.902
X166.878Y-34.29
X168.402Y-74.168
X168.91Y-89.662
X170.18Y-117.348
X171.45Y-89.662
X172.212Y-78.232
X172.72Y-85.852
X172.72Y-117.348
X173.228Y-28.448
X174.244Y-87.122
X174.752Y-68.834
X174.752Y-91.44
X177.038Y-48.26
X177.292Y-30.988
X178.308Y-86.36
X178.562Y-42.418
X178.816Y-91.44
X179.07Y-109.474
X179.07Y-114.808
X181.102Y-109.22
X181.61Y-32.512
X182.118Y-43.18
X182.88Y-86.106
X182.88Y-119.38
X183.896Y-107.696
X184.912Y-46.482
X186.69Y-107.696
X187.198Y-25.4
X189.738Y-86.106
X189.992Y-115.57
X190.5Y-119.38
X191.77Y-90.678
X193.802Y-112.522
X196.85Y-87.63
X196.85Y-97.79
X197.612Y-36.068
X197.612Y-116.84
X198.12Y-92.202
X198.12Y-107.696
X199.39Y-100.584
X200.66Y-93.98
X201.93Y-100.584
X201.93Y-106.172
X203.2Y-93.98
X210.058Y-30.988
X219.964Y-100.33
X221.742Y-105.918
X228.092Y-97.79
X228.6Y-88.9
X228.6Y-116.078
X229.87Y-87.122
X231.14Y-95.25
X231.14Y-106.68
X234.95Y-102.87
T2
X29.21Y-26.162
X29.21Y-33.147
X29.21Y-74.041
X29.21Y-81.026
X29.21Y-104.648
X29.21Y-111.633
X33.02Y-27.94
X33.02Y-35.56
X33.02Y-43.18
X33.02Y-50.8
X33.02Y-58.42
X33.02Y-66.04
X33.02Y-73.66
X33.02Y-81.28
X33.02Y-88.9
X33.02Y-96.52
X33.02Y-101.6
X33.02Y-104.14
X33.02Y-111.76
X35.56Y-27.94
X35.56Y-35.56
X35.56Y-43.18
X35.56Y-50.8
X35.56Y-58.42
X35.56Y-66.04
X35.56Y-73.66
X35.56Y-81.28
X35.56Y-88.9
X35.56Y-96.52
X35.56Y-104.14
X35.56Y-111.76
X38.1Y-27.94
X38.1Y-35.56
X38.1Y-43.18
X38.1Y-50.8
X38.1Y-58.42
X38.1Y-66.04
X38.1Y-73.66
X38.1Y-81.28
X38.1Y-88.9
X38.1Y-96.52
X38.1Y-104.14
X38.1Y-111.76
X40.64Y-27.94
X40.64Y-35.56
X40.64Y-43.18
X40.64Y-50.8
X40.64Y-58.42
X40.64Y-66.04
X40.64Y-73.66
X40.64Y-81.28
X40.64Y-88.9
X40.64Y-96.52
X40.64Y-104.14
X40.64Y-111.76
X43.18Y-27.94
X43.18Y-35.56
X43.18Y-43.18
X43.18Y-50.8
X43.18Y-53.34
X43.18Y-58.42
X43.18Y-66.04
X43.18Y-73.66
X43.18Y-81.28
X43.18Y-88.9
X43.18Y-96.52
X43.18Y-101.6
X43.18Y-104.14
X43.18Y-111.76
X45.72Y-27.94
X45.72Y-35.56
X45.72Y-43.18
X45.72Y-50.8
X45.72Y-58.42
X45.72Y-66.04
X45.72Y-73.66
X45.72Y-81.28
X45.72Y-88.9
X45.72Y-96.52
X45.72Y-104.14
X45.72Y-111.76
X48.26Y-27.94
X48.26Y-35.56
X48.26Y-43.18
X48.26Y-50.8
X48.26Y-53.34
X48.26Y-58.42
X48.26Y-66.04
X48.26Y-73.66
X48.26Y-81.28
X48.26Y-88.9
X48.26Y-96.52
X48.26Y-104.14
X48.26Y-111.76
X52.07Y-41.275
X52.07Y-48.26
X52.07Y-74.295
X52.07Y-81.28
X52.07Y-104.775
X52.07Y-111.76
X55.88Y-43.18
X55.88Y-50.8
X55.88Y-55.88
X55.88Y-58.42
X55.88Y-66.04
X55.88Y-73.66
X55.88Y-81.28
X55.88Y-88.9
X55.88Y-96.52
X55.88Y-104.14
X55.88Y-111.76
X57.658Y-27.178
X57.658Y-38.862
X58.42Y-43.18
X58.42Y-50.8
X58.42Y-58.42
X58.42Y-66.04
X58.42Y-73.66
X58.42Y-81.28
X58.42Y-88.9
X58.42Y-96.52
X58.42Y-104.14
X58.42Y-111.76
X60.96Y-43.18
X60.96Y-50.8
X60.96Y-55.88
X60.96Y-58.42
X60.96Y-66.04
X60.96Y-73.66
X60.96Y-81.28
X60.96Y-88.9
X60.96Y-96.52
X60.96Y-104.14
X60.96Y-111.76
X63.5Y-43.18
X63.5Y-50.8
X63.5Y-55.88
X63.5Y-58.42
X63.5Y-66.04
X63.5Y-71.12
X63.5Y-73.66
X63.5Y-81.28
X63.5Y-88.9
X63.5Y-96.52
X63.5Y-104.14
X63.5Y-111.76
X66.04Y-43.18
X66.04Y-50.8
X66.04Y-58.42
X66.04Y-66.04
X66.04Y-73.66
X66.04Y-81.28
X66.04Y-88.9
X66.04Y-96.52
X66.04Y-104.14
X66.04Y-111.76
X67.31Y-30.48
X67.31Y-35.56
X68.58Y-43.18
X68.58Y-50.8
X68.58Y-55.88
X68.58Y-58.42
X68.58Y-66.04
X68.58Y-71.12
X68.58Y-73.66
X68.58Y-81.28
X68.58Y-88.9
X68.58Y-96.52
X68.58Y-104.14
X68.58Y-111.76
X69.85Y-30.48
X69.85Y-35.56
X71.12Y-43.18
X71.12Y-50.8
X71.12Y-58.42
X71.12Y-66.04
X71.12Y-73.66
X71.12Y-81.28
X71.12Y-88.9
X71.12Y-96.52
X71.12Y-104.14
X71.12Y-111.76
X72.39Y-30.48
X72.39Y-35.56
X74.93Y-104.775
X74.93Y-111.76
X76.2Y-43.18
X76.2Y-53.34
X76.962Y-58.928
X78.74Y-62.23
X78.74Y-69.85
X78.74Y-81.28
X78.74Y-88.9
X78.74Y-104.14
X78.74Y-111.76
X81.28Y-62.23
X81.28Y-69.85
X81.28Y-81.28
X81.28Y-88.9
X81.28Y-104.14
X81.28Y-111.76
X83.82Y-35.56
X83.82Y-50.8
X83.82Y-62.23
X83.82Y-69.85
X83.82Y-81.28
X83.82Y-88.9
X83.82Y-104.14
X83.82Y-111.76
X83.947Y-58.928
X86.36Y-35.56
X86.36Y-50.8
X86.36Y-62.23
X86.36Y-69.85
X86.36Y-81.28
X86.36Y-88.9
X86.36Y-100.33
X86.36Y-104.14
X86.36Y-111.76
X88.9Y-35.56
X88.9Y-50.8
X88.9Y-62.23
X88.9Y-69.85
X88.9Y-81.28
X88.9Y-88.9
X88.9Y-104.14
X88.9Y-111.76
X91.44Y-35.56
X91.44Y-50.8
X91.44Y-62.23
X91.44Y-69.85
X91.44Y-81.28
X91.44Y-88.9
X91.44Y-104.14
X91.44Y-111.76
X93.98Y-35.56
X93.98Y-50.8
X93.98Y-62.23
X93.98Y-69.85
X93.98Y-81.28
X93.98Y-88.9
X93.98Y-104.14
X93.98Y-111.76
X96.52Y-35.56
X96.52Y-50.8
X96.52Y-62.23
X96.52Y-69.85
X96.52Y-81.28
X96.52Y-88.9
X96.52Y-91.44
X96.52Y-100.33
X96.52Y-104.14
X96.52Y-111.76
X99.06Y-35.56
X99.06Y-50.8
X99.06Y-62.23
X99.06Y-69.85
X99.06Y-81.28
X99.06Y-88.9
X101.6Y-35.56
X101.6Y-50.8
X101.6Y-62.23
X101.6Y-69.85
X101.6Y-81.28
X101.6Y-88.9
X101.6Y-91.44
X104.14Y-35.56
X104.14Y-50.8
X106.68Y-35.56
X106.68Y-50.8
X106.68Y-64.77
X106.68Y-69.85
X107.95Y-83.82
X107.95Y-88.9
X109.22Y-35.56
X109.22Y-50.8
X111.76Y-35.56
X111.76Y-50.8
X111.76Y-59.69
X111.76Y-62.23
X111.76Y-69.85
X111.76Y-78.74
X111.76Y-81.28
X111.76Y-88.9
X113.03Y-104.775
X113.03Y-111.76
X114.3Y-35.56
X114.3Y-50.8
X114.3Y-62.23
X114.3Y-69.85
X114.3Y-81.28
X114.3Y-88.9
X116.84Y-35.56
X116.84Y-50.8
X116.84Y-62.23
X116.84Y-69.85
X116.84Y-81.28
X116.84Y-88.9
X116.84Y-101.6
X116.84Y-104.14
X116.84Y-111.76
X118.745Y-59.69
X118.745Y-78.74
X119.38Y-35.56
X119.38Y-50.8
X119.38Y-62.23
X119.38Y-69.85
X119.38Y-81.28
X119.38Y-88.9
X119.38Y-104.14
X119.38Y-111.76
X121.92Y-35.56
X121.92Y-50.8
X121.92Y-62.23
X121.92Y-69.85
X121.92Y-81.28
X121.92Y-88.9
X121.92Y-104.14
X121.92Y-111.76
X124.46Y-35.56
X124.46Y-50.8
X124.46Y-62.23
X124.46Y-69.85
X124.46Y-81.28
X124.46Y-88.9
X124.46Y-91.44
X124.46Y-104.14
X124.46Y-111.76
X125.095Y-53.34
X127.Y-35.56
X127.Y-50.8
X127.Y-59.69
X127.Y-62.23
X127.Y-69.85
X127.Y-72.39
X127.Y-81.28
X127.Y-88.9
X127.Y-101.6
X127.Y-104.14
X127.Y-111.76
X129.54Y-35.56
X129.54Y-50.8
X129.54Y-62.23
X129.54Y-69.85
X129.54Y-81.28
X129.54Y-88.9
X129.54Y-104.14
X129.54Y-111.76
X132.08Y-35.56
X132.08Y-50.8
X132.08Y-53.34
X132.08Y-59.69
X132.08Y-62.23
X132.08Y-69.85
X132.08Y-81.28
X132.08Y-88.9
X132.08Y-104.14
X132.08Y-111.76
X134.62Y-91.44
X135.89Y-44.958
X135.89Y-50.038
X136.906Y-82.423
X136.906Y-89.408
X137.16Y-59.69
X137.16Y-69.85
X137.16Y-72.39
X138.43Y-44.958
X138.43Y-55.118
X139.7Y-27.94
X139.7Y-35.56
X139.7Y-38.1
X139.7Y-59.69
X139.7Y-69.85
X139.7Y-72.39
X140.97Y-81.28
X140.97Y-96.52
X140.97Y-99.06
X140.97Y-104.14
X140.97Y-111.76
X142.24Y-27.94
X142.24Y-35.56
X142.24Y-44.958
X142.24Y-55.118
X142.24Y-59.69
X142.24Y-69.85
X143.51Y-81.28
X143.51Y-96.52
X143.51Y-104.14
X143.51Y-111.76
X144.78Y-25.4
X144.78Y-27.94
X144.78Y-35.56
X144.78Y-38.1
X144.78Y-78.74
X146.05Y-44.958
X146.05Y-50.038
X146.05Y-54.61
X146.05Y-59.69
X146.05Y-81.28
X146.05Y-96.52
X146.05Y-104.14
X146.05Y-111.76
X146.685Y-72.39
X147.32Y-27.94
X147.32Y-35.56
X147.955Y-99.06
X148.59Y-81.28
X148.59Y-96.52
X148.59Y-104.14
X148.59Y-111.76
X149.86Y-27.94
X149.86Y-35.56
X149.86Y-48.26
X149.86Y-58.42
X151.13Y-81.28
X151.13Y-96.52
X151.13Y-104.14
X151.13Y-111.76
X151.638Y-38.1
X152.4Y-27.94
X152.4Y-35.56
X153.67Y-42.545
X153.67Y-45.085
X153.67Y-48.26
X153.67Y-55.88
X153.67Y-58.928
X153.67Y-61.468
X153.67Y-68.072
X153.67Y-75.692
X153.67Y-81.28
X153.67Y-96.52
X153.67Y-104.14
X153.67Y-111.76
X154.94Y-25.4
X154.94Y-27.94
X154.94Y-35.56
X154.94Y-78.74
X156.21Y-48.26
X156.21Y-55.88
X156.21Y-68.072
X156.21Y-75.692
X156.21Y-81.28
X156.21Y-96.52
X156.21Y-104.14
X156.21Y-111.76
X156.845Y-64.516
X157.48Y-25.4
X157.48Y-27.94
X157.48Y-35.56
X158.623Y-38.1
X158.75Y-40.005
X158.75Y-48.26
X158.75Y-55.88
X158.75Y-64.516
X158.75Y-68.072
X158.75Y-75.692
X158.75Y-81.28
X158.75Y-96.52
X158.75Y-104.14
X158.75Y-111.76
X161.29Y-48.26
X161.29Y-55.88
X161.29Y-68.072
X161.29Y-75.692
X161.29Y-81.28
X161.29Y-96.52
X161.925Y-116.332
X163.83Y-34.29
X163.83Y-36.83
X163.83Y-40.005
X163.83Y-42.545
X163.83Y-45.085
X163.83Y-48.26
X163.83Y-55.88
X163.83Y-58.928
X163.83Y-61.468
X163.83Y-81.28
X163.83Y-96.52
X163.83Y-116.332
X165.1Y-35.56
X166.37Y-40.005
X166.37Y-42.545
X166.37Y-45.085
X166.37Y-48.26
X166.37Y-55.88
X166.37Y-58.928
X166.37Y-61.468
X166.37Y-64.008
X166.37Y-67.31
X166.37Y-70.358
X166.37Y-72.898
X166.37Y-75.438
X166.37Y-78.74
X166.37Y-81.28
X166.37Y-96.52
X167.64Y-25.4
X168.148Y-30.48
X168.148Y-35.56
X168.91Y-48.26
X168.91Y-55.88
X168.91Y-81.28
X168.91Y-96.52
X168.91Y-104.14
X168.91Y-111.76
X170.688Y-30.48
X170.688Y-35.56
X171.45Y-64.008
X171.45Y-104.14
X171.45Y-111.76
X172.974Y-49.657
X172.974Y-56.642
X173.228Y-25.4
X173.228Y-35.56
X173.355Y-45.085
X173.355Y-67.31
X173.355Y-70.358
X173.99Y-104.14
X173.99Y-111.76
X176.53Y-40.005
X176.53Y-42.545
X176.53Y-51.562
X176.53Y-58.928
X176.53Y-61.468
X176.53Y-72.898
X176.53Y-75.438
X176.53Y-78.74
X176.53Y-81.28
X176.53Y-84.582
X176.53Y-104.14
X176.53Y-111.76
X177.165Y-65.278
X177.165Y-70.104
X177.8Y-27.94
X177.8Y-35.56
X178.435Y-51.562
X179.07Y-65.278
X179.07Y-70.104
X179.07Y-104.14
X179.07Y-111.76
X179.324Y-40.005
X180.34Y-25.4
X180.34Y-27.94
X180.34Y-35.56
X180.34Y-55.88
X181.229Y-40.005
X181.61Y-104.14
X181.61Y-111.76
X182.245Y-55.88
X182.88Y-27.94
X182.88Y-35.56
X184.15Y-104.14
X184.15Y-111.76
X185.42Y-25.4
X185.42Y-27.94
X185.42Y-35.56
X186.69Y-81.28
X186.69Y-84.582
X186.69Y-104.14
X186.69Y-111.76
X189.23Y-27.178
X189.23Y-37.338
X189.23Y-53.34
X189.23Y-55.245
X190.754Y-63.5
X190.754Y-66.04
X191.77Y-29.972
X191.77Y-104.775
X191.77Y-111.76
X192.278Y-25.4
X193.04Y-28.702
X193.04Y-31.242
X193.04Y-53.34
X193.548Y-38.1
X195.58Y-56.515
X195.58Y-63.5
X195.58Y-86.36
X195.58Y-88.9
X195.58Y-96.52
X195.58Y-104.14
X195.58Y-111.76
X196.088Y-38.1
X197.612Y-29.21
X197.612Y-31.115
X198.12Y-56.515
X198.12Y-63.5
X198.12Y-86.36
X198.12Y-88.9
X198.12Y-96.52
X198.12Y-104.14
X198.12Y-111.76
X199.898Y-27.94
X199.898Y-38.1
X200.66Y-68.58
X200.66Y-86.36
X200.66Y-88.9
X200.66Y-96.52
X200.66Y-104.14
X200.66Y-111.76
X201.295Y-48.26
X202.438Y-25.4
X202.438Y-27.94
X202.438Y-38.1
X203.2Y-48.26
X203.2Y-53.34
X203.2Y-58.42
X203.2Y-60.96
X203.2Y-68.58
X203.2Y-86.36
X203.2Y-88.9
X203.2Y-96.52
X203.2Y-104.14
X203.2Y-111.76
X204.978Y-27.94
X204.978Y-38.1
X205.74Y-86.36
X205.74Y-88.9
X205.74Y-96.52
X205.74Y-104.14
X205.74Y-111.76
X207.518Y-27.94
X207.518Y-38.1
X208.28Y-88.9
X208.28Y-96.52
X208.28Y-104.14
X208.28Y-111.76
X209.55Y-25.4
X209.55Y-48.26
X209.55Y-50.8
X209.55Y-53.34
X209.55Y-55.88
X209.55Y-58.42
X209.55Y-60.96
X209.55Y-63.5
X209.55Y-66.04
X209.55Y-70.104
X209.55Y-72.898
X209.55Y-83.058
X210.058Y-27.94
X210.058Y-38.1
X210.82Y-88.9
X210.82Y-96.52
X210.82Y-104.14
X210.82Y-111.76
X211.455Y-25.4
X212.598Y-27.94
X212.598Y-38.1
X213.36Y-88.9
X213.36Y-96.52
X213.36Y-104.14
X213.36Y-111.76
X215.138Y-27.94
X215.138Y-38.1
X215.9Y-24.638
X215.9Y-88.9
X215.9Y-96.52
X215.9Y-104.14
X215.9Y-111.76
X216.535Y-70.104
X216.535Y-72.898
X216.535Y-83.058
X217.17Y-48.26
X217.17Y-50.8
X217.17Y-53.34
X217.17Y-55.88
X217.17Y-58.42
X217.17Y-60.96
X217.17Y-63.5
X217.17Y-66.04
X217.678Y-27.94
X217.678Y-38.1
X218.44Y-88.9
X218.44Y-96.52
X218.44Y-104.14
X218.44Y-111.76
X220.218Y-27.94
X220.218Y-38.1
X220.218Y-44.45
X220.98Y-55.118
X222.25Y-49.784
X222.504Y-26.543
X222.504Y-33.528
X222.758Y-70.358
X222.758Y-72.898
X223.52Y-60.96
X223.52Y-63.5
X223.52Y-80.518
X223.52Y-83.058
X223.52Y-88.9
X223.52Y-91.44
X223.52Y-93.98
X223.52Y-96.52
X223.52Y-99.06
X224.79Y-38.1
X224.79Y-49.784
X226.06Y-24.638
X226.06Y-27.94
X226.06Y-35.56
X226.06Y-41.91
X226.06Y-88.9
X226.06Y-91.44
X226.06Y-93.98
X226.06Y-96.52
X226.06Y-99.06
X226.06Y-101.6
X226.06Y-104.14
X226.06Y-106.68
X228.219Y-24.638
X228.6Y-27.94
X228.6Y-35.56
X229.87Y-38.1
X230.378Y-44.45
X231.14Y-27.94
X231.14Y-35.56
X231.14Y-55.118
X231.14Y-58.42
X231.14Y-110.998
X231.775Y-116.078
X232.41Y-38.1
X232.664Y-63.5
X232.664Y-66.04
X232.664Y-76.2
X232.664Y-80.01
X233.045Y-58.42
X233.68Y-27.94
X233.68Y-35.56
X233.68Y-88.9
X233.68Y-91.44
X233.68Y-93.98
X233.68Y-96.52
X233.68Y-99.06
X233.68Y-101.6
X233.68Y-104.14
X233.68Y-106.68
X233.68Y-116.078
X235.204Y-24.638
X236.22Y-27.94
X236.22Y-35.56
X236.22Y-41.91
X236.22Y-44.45
X236.22Y-49.53
X236.22Y-54.102
X236.22Y-88.9
X236.22Y-91.44
X236.22Y-93.98
X236.22Y-96.52
X236.22Y-99.06
X236.22Y-101.6
X236.22Y-104.14
X236.22Y-106.68
X237.49Y-24.638
X237.998Y-56.515
X237.998Y-63.5
X237.998Y-66.675
X237.998Y-73.66
X238.125Y-54.102
X238.76Y-27.94
X238.76Y-35.56
X238.76Y-41.91
X238.76Y-46.99
X238.76Y-88.9
X238.76Y-91.44
X238.76Y-93.98
X238.76Y-96.52
X238.76Y-99.06
X238.76Y-101.6
X238.76Y-104.14
X238.76Y-108.458
X238.76Y-113.538
X238.76Y-116.078
X239.395Y-38.1
X241.3Y-27.94
X241.3Y-35.56
X242.57Y-24.638
X243.84Y-88.9
X243.84Y-91.44
X243.84Y-93.98
X243.84Y-96.52
X243.84Y-99.06
X243.84Y-101.6
X243.84Y-104.14
X243.84Y-108.458
X243.84Y-110.998
X243.84Y-113.538
X243.84Y-116.078
X244.602Y-24.638
X244.602Y-27.178
X244.602Y-29.718
X244.602Y-32.258
X244.602Y-34.798
X245.364Y-76.2
X245.364Y-80.01
X249.682Y-34.798
X252.349Y-35.052
X254.254Y-35.052
X254.762Y-24.638
X254.762Y-27.178
X254.762Y-29.718
X254.762Y-32.258
T3
X68.58Y-101.6
X71.12Y-101.6
X76.708Y-27.94
X76.708Y-30.48
X76.708Y-33.02
X78.74Y-46.99
X78.74Y-49.53
X79.248Y-27.94
X79.248Y-30.48
X79.248Y-33.02
X102.235Y-104.14
X102.235Y-106.68
X102.235Y-109.22
X102.235Y-111.76
X104.775Y-104.14
X104.775Y-106.68
X104.775Y-109.22
X104.775Y-111.76
X173.99Y-93.98
X173.99Y-96.52
X176.53Y-93.98
X176.53Y-96.52
X179.07Y-93.98
X179.07Y-96.52
X181.61Y-93.98
X181.61Y-96.52
X184.15Y-93.98
X184.15Y-96.52
X186.69Y-93.98
X186.69Y-96.52
X209.55Y-75.438
X209.55Y-77.978
X209.55Y-80.518
X249.174Y-67.31
X252.476Y-68.707
X255.778Y-67.31
T4
X248.92Y-99.822
X248.92Y-102.616
X248.92Y-105.41
X248.92Y-108.204
X248.92Y-110.998
X248.92Y-113.792
X248.92Y-116.586
X248.92Y-119.38
X251.79Y-101.219
X251.79Y-104.013
X251.79Y-106.807
X251.79Y-109.601
X251.79Y-112.395
X251.79Y-115.189
X251.79Y-117.983
T5
X251.286Y-78.486
X251.286Y-88.486
X256.286Y-83.486
T6
X248.539Y-62.484
X256.413Y-62.484
T7
X251.286Y-83.486
X256.286Y-78.486
X256.286Y-88.486
T8
X250.355Y-93.167
X250.355Y-126.441
T9
X243.357Y-45.212
X245.847Y-40.005
X257.048Y-45.212
T10
X254.Y-55.372
T11
X191.77Y-77.978
T0
M30
